<?xml version="1.0" standalone="no"?><!DOCTYPE svg PUBLIC "-//W3C//DTD SVG 1.1//EN" "http://www.w3.org/Graphics/SVG/1.1/DTD/svg11.dtd"><svg t="1535707339935" class="icon" style="" viewBox="0 0 1024 1024" version="1.1" xmlns="http://www.w3.org/2000/svg" p-id="1427" xmlns:xlink="http://www.w3.org/1999/xlink" width="200" height="200"><defs><style type="text/css"></style></defs><path d="M512 930.816c-228.352 0-413.696-185.856-413.696-413.696 0-228.352 185.856-413.696 413.696-413.696 228.352 0 413.696 185.856 413.696 413.696 0 228.352-185.344 413.696-413.696 413.696z m0-786.432c-205.824 0-372.736 167.424-372.736 372.736 0 205.824 167.424 372.736 372.736 372.736 205.824 0 372.736-167.424 372.736-372.736 0-205.824-166.912-372.736-372.736-372.736z" fill="#d81e06" p-id="1428"></path><path d="M504.32 118.784c-217.088 0-393.216 176.128-393.216 393.216s176.128 393.216 393.216 393.216 393.216-176.128 393.216-393.216-176.128-393.216-393.216-393.216zM701.44 368.64c33.792 0 61.44 27.648 61.44 61.44s-27.648 61.44-61.44 61.44-61.44-27.648-61.44-61.44 27.648-61.44 61.44-61.44z m-353.28 0c33.792 0 61.44 27.648 61.44 61.44s-27.648 61.44-61.44 61.44-61.44-27.648-61.44-61.44 27.648-61.44 61.44-61.44z m166.4 438.784c-122.88 0-235.008-77.312-279.04-192-4.096-10.752 1.024-22.528 11.776-26.624 10.752-4.096 22.528 1.024 26.624 11.776 37.888 99.328 134.656 165.888 240.64 165.888 105.472 0 199.168-62.976 238.592-160.768 4.096-10.24 16.384-15.36 26.624-11.264 10.24 4.096 15.36 16.384 11.264 26.624-45.568 113.152-154.112 186.368-276.48 186.368z" fill="#d81e06" p-id="1429"></path></svg>