<?xml version="1.0" standalone="no"?><!DOCTYPE svg PUBLIC "-//W3C//DTD SVG 1.1//EN" "http://www.w3.org/Graphics/SVG/1.1/DTD/svg11.dtd"><svg t="1535707325363" class="icon" style="" viewBox="0 0 1024 1024" version="1.1" xmlns="http://www.w3.org/2000/svg" p-id="917" xmlns:xlink="http://www.w3.org/1999/xlink" width="200" height="200"><defs><style type="text/css"></style></defs><path d="M512 930.816c-228.352 0-413.696-185.856-413.696-413.696 0-228.352 185.856-413.696 413.696-413.696 228.352 0 413.696 185.856 413.696 413.696 0 228.352-185.344 413.696-413.696 413.696z m0-786.432c-205.824 0-372.736 167.424-372.736 372.736 0 205.824 167.424 372.736 372.736 372.736 205.824 0 372.736-167.424 372.736-372.736 0-205.824-166.912-372.736-372.736-372.736z" fill="#d81e06" p-id="918"></path><path d="M512 132.096c-214.016 0-388.096 173.568-388.096 388.096s173.568 388.096 388.096 388.096 388.096-173.568 388.096-388.096-174.08-388.096-388.096-388.096zM348.16 368.64c33.792 0 61.44 27.648 61.44 61.44s-27.648 61.44-61.44 61.44-61.44-27.648-61.44-61.44 27.648-61.44 61.44-61.44z m369.664 324.096H321.536c-11.264 0-20.48-9.216-20.48-20.48s9.216-20.48 20.48-20.48h396.8c11.264 0 20.48 9.216 20.48 20.48s-9.728 20.48-20.992 20.48zM701.44 491.52c-33.792 0-61.44-27.648-61.44-61.44s27.648-61.44 61.44-61.44 61.44 27.648 61.44 61.44-27.648 61.44-61.44 61.44z" fill="#d81e06" p-id="919"></path></svg>